<?xml version="1.0" encoding="utf-8"?>
<!-- Generator: Adobe Illustrator 25.2.1, SVG Export Plug-In . SVG Version: 6.00 Build 0)  -->
<svg version="1.1" id="Layer_1" xmlns="http://www.w3.org/2000/svg" xmlns:xlink="http://www.w3.org/1999/xlink" x="0px" y="0px"
	 viewBox="0 0 150 80" enable-background="new 0 0 150 80" xml:space="preserve">
<g>
	<polygon fill="#FFFFFF" points="22.2,78 148.2,78 148.2,2 2.2,2 	"/>
	<path fill="#207F90" d="M149.7,79.5H21.1L0.3,0.5h149.4V79.5z M23.4,76.5h123.3v-73H4.2L23.4,76.5z"/>
	<g>
		<g>
			<path fill="#207F90" d="M73.5,28.2l-0.6,4.5c1.2-0.3,2.5-0.5,3.9-0.5c3.5,0,6.2,1,8.1,2.9c1.9,2,2.9,4.6,2.9,7.9
				c0,3.5-1.2,6.2-3.6,8.3s-5.2,3.1-8.5,3.1c-4.5,0-7.9-0.7-10.3-2v-7.1c2.5,1.9,5.4,2.9,8.7,2.9c1.9,0,3.3-0.5,4.2-1.5
				c0.9-1,1.4-2.2,1.4-3.6c0-1.5-0.5-2.8-1.4-3.7c-0.9-0.9-2.3-1.4-4.2-1.4c-1.5,0-2.8,0.1-3.8,0.3c-1,0.2-2.3,0.7-3.8,1.4l-0.7-0.3
				L68,21.7h17.2v6.5H73.5z"/>
		</g>
	</g>
</g>
</svg>
